<svg xmlns="http://www.w3.org/2000/svg" width="273.567" height="57.568" viewBox="0 0 273.567 57.568"><defs><style>.a{fill:#6c8d93;}</style></defs><path class="a" d="M276.153,493.149c1.924-.98,3.925-1.82,5.806-2.875,4.719-2.646,9.373-5.407,14.111-8.016a6.245,6.245,0,0,0,2.553-2.766c3.6-6.64,13.835-8.253,19.3-3a2.789,2.789,0,0,0,3.195.675c3.918-1.248,7.828-2.522,11.754-3.743,1.192-.371,2.468-1.092,3.608.319-.032,1.866-1.515,2.539-2.848,3.1q-6.125,2.589-12.362,4.914a5.872,5.872,0,0,0-3.552,2.985,24.617,24.617,0,0,1-11.291,10.858,12.685,12.685,0,0,1-5.884,1.347c-3.676-.139-5.769-2.4-6.435-6.1-.072-.4-.21-.789-.4-1.495-2.059,1.135-3.894,2.266-5.83,3.187-3.119,1.483-6.271,2.909-9.473,4.2-2.039.822-4.127.688-5.66-1.112s-1.241-3.95-.2-5.8c1.8-3.2,3.853-6.266,5.81-9.382.794-1.263,1.634-2.5,2.441-3.755l-.177-.212c-1.264.5-2.573.9-3.823,1.432a67.13,67.13,0,0,0-19.462,12.946c-1.169,1.093-2.373,2.147-3.594,3.182a4.9,4.9,0,0,1-1.874,1.194,2.635,2.635,0,0,1-2.006-.453,1.99,1.99,0,0,1-.173-1.757,12.655,12.655,0,0,1,1.446-2.526c1.8-2.7,3.689-5.354,5.434-8.1a9.733,9.733,0,0,0,1.947-5.554c-2.07-.262-3.682.622-5.272,1.432a64.583,64.583,0,0,0-17.95,13.255c-1.263,1.341-2.532,2.679-3.858,3.955a8.337,8.337,0,0,1-2.087,1.527c-1.4.678-2.455.016-2.306-1.514a13.594,13.594,0,0,1,.94-3.762c1.144-2.806,2.448-5.546,3.657-8.327.381-.876.664-1.794,1.084-2.95-1.592-.153-2.376.838-3.162,1.57-3.089,2.882-6.1,5.85-9.153,8.769-1.544,1.474-3.076,2.967-4.7,4.348a13.086,13.086,0,0,1-2.363,1.626c-4.316,2.269-7.311.755-7.75-3.8-.131-1.355-.02-2.733-.02-4.749-1.648,1.307-2.759,2.28-3.961,3.122-1.683,1.177-3.4,2.316-5.165,3.361a3.921,3.921,0,0,1-4.839-.259,4.076,4.076,0,0,1-1.324-4.7,23.964,23.964,0,0,1,2.478-4.89c1.03-1.619,2.311-3.078,3.8-5.022-.485-.445-1.958.168-2.6.416q-5.736,2.207-11.43,4.528a4,4,0,0,0-2.67,3.671,13.267,13.267,0,0,1-3.35,7.624,11.21,11.21,0,0,1-3.848,2.833c-2.363.99-4.443-.7-4.081-3.269a8.844,8.844,0,0,1,1.52-3.868,40.719,40.719,0,0,1,4.929-5.572,3.152,3.152,0,0,0,1.062-3.717c-.556-1.6-1.1-3.2-1.887-5.487-1.106,1.757-1.851,2.891-2.545,4.054a50.5,50.5,0,0,1-13.438,15.274,33.655,33.655,0,0,1-6.162,3.561c-4.67,2.071-8.84.332-10.927-4.385-.516-1.165-.87-2.4-1.375-3.818-1.109.5-2.04.995-3.021,1.347a47.134,47.134,0,0,1-6.147,2.02c-4.747.989-7.82-1.151-8.751-5.857-.163-.824-.256-1.662-.458-3.006-.965.918-1.611,1.568-2.294,2.177-3.147,2.8-5.981,5.714-9.5,8.338a13.773,13.773,0,0,1-4.954,2.309,2.84,2.84,0,0,1-3.791-3.128,12.058,12.058,0,0,1,1.6-5.176c1.769-2.8,3.96-5.344,6.089-8.143a14.272,14.272,0,0,0-5.9,1.067,12.714,12.714,0,0,0-6.184,4.4,62.179,62.179,0,0,1-13.634,12.46,33.463,33.463,0,0,1-6.041,3.091,3.176,3.176,0,0,1-4.073-1.074,3.138,3.138,0,0,1,.352-3.93,37.793,37.793,0,0,1,4.47-4.683,68.7,68.7,0,0,1,16.06-9.745c3.249-1.5,5.8-6.053,5.854-9.992a1.568,1.568,0,0,0-1.244-1.561,6.7,6.7,0,0,0-3.747.439,52.654,52.654,0,0,0-7.787,3.952A53.793,53.793,0,0,0,68.7,496.336a44.937,44.937,0,0,1-2.866,4.711,2.142,2.142,0,0,1-1.921.643,2.092,2.092,0,0,1-1-1.743,29.454,29.454,0,0,1,1.151-5.386q5.482-17.006,11.082-33.972,1.727-5.245,3.62-10.435c.861-2.374.951-2.4,2.81-3.825.754,1.428.2,2.748-.185,4.041q-4.868,16.178-9.76,32.345c-.3,1-1.036,3.495-.38,3.34.606-.651,1.241-1.276,1.813-1.955a56.28,56.28,0,0,1,13.084-11.6,25.469,25.469,0,0,1,10.224-3.952c5.232-.693,8.136,2.433,7.012,7.557-.271,1.238-.647,2.454-1.071,4.036,3.853-.862,7.378-1.74,10.94-2.423a98.749,98.749,0,0,1,10.251-1.575c3.093-.259,3.48.4,2.537,3.3a16.732,16.732,0,0,0-.355,9.045,3.331,3.331,0,0,0,3.747,2.472,23.42,23.42,0,0,0,10.472-5.133,4.492,4.492,0,0,0,1.178-2.213c2.862-9.842,8.468-17.959,15.744-25a20.072,20.072,0,0,1,4.293-2.879,3.224,3.224,0,0,1,3.945.2,3.474,3.474,0,0,1,.887,3.585,32.929,32.929,0,0,1-4.692,11c-4.2,6.561-9.7,11.914-15.706,16.779-1.37,1.11-2.792,2-2.147,4.215.687,2.362,1.417,4.692,3.951,5.543a5.708,5.708,0,0,0,3.413-.3c4.756-1.681,8.232-5.108,11.465-8.8,4.174-4.768,7.08-10.36,10.18-15.825.213-.376.362-.79.584-1.161,1.271-2.123,3.1-2.149,4.033.188a67.154,67.154,0,0,1,2.2,7.782c.263.991.439,2.006.726,3.344,1.346-.758,2.288-1.251,3.193-1.8a57.969,57.969,0,0,1,26.473-8.033,9.3,9.3,0,0,1,3.34.461,2.791,2.791,0,0,1,1.869,3.427,12.719,12.719,0,0,1-1.865,3.459,23.359,23.359,0,0,0-4.016,10.856c-.142,1.088-.367,2.481.453,3.179a.5.5,0,0,0,.077.038c1.245.754,2.852-.4,3.868-1.288,1.873-1.64,3.648-3.393,5.436-5.129,2.7-2.622,5.348-5.3,8.079-7.891a33.472,33.472,0,0,1,3.545-2.908c1.709-1.225,3.66-2.48,5.662-.919,1.837,1.432,1.35,3.492.874,5.414-.23.925-.581,1.82-1.134,3.52,1.3-.957,2.03-1.444,2.7-2,4.113-3.375,8.309-6.655,13.2-8.816a22.451,22.451,0,0,1,6.491-1.875c3.2-.349,4.816,1.537,4.547,4.779-.087,1.05-.337,2.086-.575,3.5.916-.559,1.574-.881,2.143-1.319a57.4,57.4,0,0,1,13.981-7.507,12.687,12.687,0,0,1,3.114-.87c3.647-.447,6.122,2.46,4.956,5.934a15.654,15.654,0,0,1-2.234,3.928c-1.95,2.734-4.049,5.362-6,8.093a14.821,14.821,0,0,0-2.4,4.2C275.708,493.408,275.935,492.913,276.153,493.149Zm-67.159-15.791c-3.946-.119-8.606.714-11.384,4.591-1.446,2.018-2.961,3.989-4.321,6.063a9.693,9.693,0,0,0-.965,2.71c-.361,1.751,1.065,2.626,2.662,1.876a9.746,9.746,0,0,0,1.622-1.068c4.734-3.537,8.448-8.029,11.893-12.767C208.732,478.445,209.33,477.792,208.994,477.358Zm-65.121,4.748c6.646-3.368,17.63-17.591,17.835-23.1C156.174,460.743,145.03,475.174,143.873,482.106Zm-21.925-2.2c-8.037.795-17.021,8.6-17.682,15.112C108.832,493.921,119.554,484.839,121.948,479.906Zm192.527,3.9c-.092-.15-.684.2-1.966.612a16.592,16.592,0,0,1-2.659.723c-3.067.593-6.549,1.344-9.705.262-.443-.152-.443-.152-1.08.325a6.5,6.5,0,0,0-2.028,4.9,3.346,3.346,0,0,0,2.944,2.644,5.341,5.341,0,0,0,2.829-.12C307.146,491.577,311.74,487.382,314.475,483.807Zm-.233-4.759c-3.175-3.935-9.62-2.126-11.781,2.006C305.08,481.51,311.33,480.7,314.242,479.048ZM90.561,488.612c-4.85,1.545-11.9,7.169-13.646,10.935A76.678,76.678,0,0,0,90.561,488.612Zm80.837,8.246c3.078-.963,4.365-3.1,4.637-7.419-2.426,1.963-4.377,3.807-5.088,7A.36.36,0,0,0,171.4,496.858Z" transform="translate(-62.914 -446.329)"/><path class="a" d="M124.534,468.984a7.817,7.817,0,0,1,.733-1.984q3.425-4.722,6.988-9.344a3.6,3.6,0,0,1,1.554-1.1,1.225,1.225,0,0,1,1.652,1.573,4.252,4.252,0,0,1-.869,1.718c-2.775,3.025-5.594,6.01-8.427,8.982a3.673,3.673,0,0,1-1.087.547Z" transform="translate(-62.914 -446.329)"/></svg>