<svg xmlns="http://www.w3.org/2000/svg" width="26.364" height="32.134" viewBox="0 0 26.364 32.134"><defs><style>.a{fill:#433a49;}</style></defs><g transform="translate(11.151)"><path class="a" d="M245.851,118.674a.28.28,0,0,1-.279.28h0a.28.28,0,0,1-.279-.28V94.787a.28.28,0,0,1,.279-.279h0a.28.28,0,0,1,.279.279Z" transform="translate(-243.541 -88.425)"/><circle class="a" cx="1.1" cy="1.1" r="1.1" transform="translate(0.93 29.934)"/><path class="a" d="M220.125,0c-1.161.57-2.041,3.133-2.041,4.357a2.5,2.5,0,0,0,2.041,2.455Z" transform="translate(-218.084)"/></g><path class="a" d="M249.474,0c1.161.57,2.04,3.133,2.04,4.357a2.5,2.5,0,0,1-2.04,2.455Z" transform="translate(-236.302)"/><path class="a" d="M253.093,117.424c-1.225-.417-3.659.775-4.525,1.64a2.5,2.5,0,0,0-.293,3.178Z" transform="translate(-234.772 -109.786)"/><path class="a" d="M259.247,118.469c.417,1.224-.775,3.659-1.639,4.524a2.5,2.5,0,0,1-3.179.294Z" transform="translate(-240.938 -110.844)"/><path class="a" d="M253.093,205.319c-1.225-.418-3.659.774-4.525,1.639a2.5,2.5,0,0,0-.293,3.178Z" transform="translate(-234.772 -192.024)"/><path class="a" d="M259.247,206.368c.417,1.224-.775,3.658-1.639,4.524a2.5,2.5,0,0,1-3.179.294Z" transform="translate(-240.938 -193.085)"/><path class="a" d="M253.093,293.208c-1.225-.418-3.659.774-4.525,1.639a2.5,2.5,0,0,0-.293,3.178Z" transform="translate(-234.772 -274.255)"/><path class="a" d="M259.247,294.258c.417,1.224-.775,3.659-1.639,4.524a2.5,2.5,0,0,1-3.179.294Z" transform="translate(-240.938 -275.318)"/><path class="a" d="M253.35,394.608c-1.006-.343-3.009.637-3.719,1.349a2.055,2.055,0,0,0-.242,2.614Z" transform="translate(-235.887 -369.144)"/><path class="a" d="M258.4,395.485c.343,1.006-.636,3.009-1.348,3.72a2.056,2.056,0,0,1-2.614.241Z" transform="translate(-240.946 -370.03)"/><path class="a" d="M169.759,117.424c1.225-.417,3.659.775,4.525,1.64a2.5,2.5,0,0,1,.293,3.178Z" transform="translate(-161.718 -109.786)"/><path class="a" d="M168.727,118.469c-.418,1.224.774,3.659,1.639,4.524a2.5,2.5,0,0,0,3.178.294Z" transform="translate(-160.672 -110.844)"/><path class="a" d="M169.759,205.319c1.225-.418,3.659.774,4.525,1.639a2.5,2.5,0,0,1,.293,3.178Z" transform="translate(-161.718 -192.024)"/><path class="a" d="M168.727,206.368c-.418,1.224.774,3.658,1.639,4.524a2.5,2.5,0,0,0,3.178.294Z" transform="translate(-160.672 -193.085)"/><path class="a" d="M169.759,293.208c1.225-.418,3.659.774,4.525,1.639a2.5,2.5,0,0,1,.293,3.178Z" transform="translate(-161.718 -274.255)"/><path class="a" d="M168.727,294.258c-.418,1.224.774,3.659,1.639,4.524a2.5,2.5,0,0,0,3.178.294Z" transform="translate(-160.672 -275.318)"/><path class="a" d="M183.1,394.608c1.007-.343,3.009.637,3.72,1.349a2.053,2.053,0,0,1,.241,2.614Z" transform="translate(-174.196 -369.144)"/><g transform="translate(0 11.993)"><path class="a" d="M182.246,395.485c-.343,1.006.635,3.009,1.348,3.72a2.055,2.055,0,0,0,2.613.241Z" transform="translate(-173.335 -382.023)"/><path class="a" d="M48.294,197.678l0,0h0a1.566,1.566,0,0,0,1.982-.19,3.818,3.818,0,0,0,1.03-2.821l.006-.006-.007,0v-.007l-.006.006a3.818,3.818,0,0,0-2.822,1.03,1.544,1.544,0,0,0-.21.269V194.09c.007.012.012.024.019.036l0,0,.005,0s0,0,0,.006l0,0a1.566,1.566,0,0,0,1.982-.19,3.82,3.82,0,0,0,1.03-2.821l.006-.006-.007,0a.017.017,0,0,1,0-.007l-.006.006a3.823,3.823,0,0,0-2.822,1.03,1.564,1.564,0,0,0-.21.269V190.55a1.562,1.562,0,0,0,1.1-1.489,3.819,3.819,0,0,0-1.266-2.724v-.008l0,0a.015.015,0,0,1-.008,0v.008a3.822,3.822,0,0,0-1.267,2.724,1.562,1.562,0,0,0,1.1,1.489v1.865a1.51,1.51,0,0,0-.211-.269,3.826,3.826,0,0,0-2.821-1.03l-.006-.006s0,.005,0,.007l-.007,0,.006.006a3.82,3.82,0,0,0,1.029,2.821,1.564,1.564,0,0,0,1.981.19l0,0s0,0,0-.007l0,0,0,0c.008-.012.013-.024.021-.036v1.87a1.529,1.529,0,0,0-.211-.269,3.819,3.819,0,0,0-2.821-1.03l-.006-.006s0,0,0,.007l-.007,0,.006.006a3.818,3.818,0,0,0,1.029,2.821,1.566,1.566,0,0,0,1.982.19l0,0,0,0,.005,0,0,0c.008-.012.013-.025.021-.038v1.87a1.51,1.51,0,0,0-.211-.269,3.821,3.821,0,0,0-2.821-1.03l-.006-.006s0,.005,0,.008h-.007l.006.006a3.818,3.818,0,0,0,1.029,2.821,1.566,1.566,0,0,0,1.982.191l0,0,0,0,.006,0,0,0c.008-.012.013-.025.021-.037v2.183a1.221,1.221,0,0,0-.178-.228,3.136,3.136,0,0,0-2.319-.847l-.005,0v.006H45.41l.005.005a3.14,3.14,0,0,0,.847,2.32,1.287,1.287,0,0,0,1.629.157v0a0,0,0,0,0,0,0l.007,0,0,0c.008-.012.013-.025.021-.038v.391a.688.688,0,1,0,.35,0v-.389c.007.012.013.025.02.037l0,0,0,0,0,.005,0,0a1.287,1.287,0,0,0,1.629-.157,3.136,3.136,0,0,0,.846-2.321l.005,0h-.005v-.006l-.005,0a3.141,3.141,0,0,0-2.319.847,1.245,1.245,0,0,0-.177.229v-2.183c.007.012.013.025.02.036l0,0,.006,0,0,.005,0,0a1.566,1.566,0,0,0,1.982-.191,3.817,3.817,0,0,0,1.03-2.821l.006-.006h-.007V198.2l-.006.006a3.82,3.82,0,0,0-2.822,1.03,1.544,1.544,0,0,0-.21.269v-1.87c.007.012.013.025.02.037l0,0Z" transform="translate(-44.829 -186.33)"/><path class="a" d="M356.425,197.678l0,0h0a1.566,1.566,0,0,0,1.982-.19,3.818,3.818,0,0,0,1.029-2.821l.006-.006-.007,0v-.007l-.006.006a3.82,3.82,0,0,0-2.822,1.03,1.572,1.572,0,0,0-.21.269V194.09c.007.012.012.024.02.036l0,0,.005,0s0,0,0,.006l0,0a1.566,1.566,0,0,0,1.982-.19,3.819,3.819,0,0,0,1.029-2.821l.006-.006-.007,0a.031.031,0,0,1,0-.007l-.006.006a3.825,3.825,0,0,0-2.822,1.03,1.593,1.593,0,0,0-.21.269V190.55a1.561,1.561,0,0,0,1.1-1.489,3.821,3.821,0,0,0-1.266-2.724v-.008l0,0a.015.015,0,0,1-.008,0v.008a3.82,3.82,0,0,0-1.267,2.724,1.562,1.562,0,0,0,1.1,1.489v1.865a1.488,1.488,0,0,0-.211-.269,3.824,3.824,0,0,0-2.821-1.03l-.006-.006s0,.005,0,.007l-.007,0,.006.006a3.82,3.82,0,0,0,1.03,2.821,1.564,1.564,0,0,0,1.981.19l0,0s0,0,0-.007l0,0,0,0c.008-.012.012-.024.02-.036v1.87a1.506,1.506,0,0,0-.211-.269,3.817,3.817,0,0,0-2.821-1.03l-.006-.006s0,0,0,.007l-.007,0,.006.006a3.819,3.819,0,0,0,1.03,2.821,1.566,1.566,0,0,0,1.982.19l0,0,0,0,.005,0,0,0c.008-.012.012-.025.02-.038v1.87a1.488,1.488,0,0,0-.211-.269,3.819,3.819,0,0,0-2.821-1.03l-.006-.006s0,.005,0,.008H353l.006.006a3.818,3.818,0,0,0,1.03,2.821,1.566,1.566,0,0,0,1.982.191l0,0,0,0,.006,0,0,0c.008-.012.012-.025.02-.037v2.183a1.241,1.241,0,0,0-.177-.228,3.137,3.137,0,0,0-2.319-.847l-.005,0v.006h-.006l.005.005a3.139,3.139,0,0,0,.847,2.32,1.287,1.287,0,0,0,1.629.157v0a0,0,0,0,0,0,0l.007,0,0,0c.008-.012.012-.025.02-.038v.391a.688.688,0,1,0,.35,0v-.389c.007.012.013.025.021.037l0,0,0,0,0,.005,0,0a1.287,1.287,0,0,0,1.629-.157,3.135,3.135,0,0,0,.846-2.321l.005,0H358.9v-.006l-.005,0a3.14,3.14,0,0,0-2.319.847,1.227,1.227,0,0,0-.178.229v-2.183c.007.012.013.025.021.036l0,0,.006,0,0,.005,0,0a1.566,1.566,0,0,0,1.982-.191,3.817,3.817,0,0,0,1.029-2.821l.006-.006h-.007V198.2l-.006.006a3.822,3.822,0,0,0-2.822,1.03,1.569,1.569,0,0,0-.21.269v-1.87c.007.012.013.025.021.037l0,0Z" transform="translate(-333.128 -186.33)"/></g></svg>